<svg width="40" height="40" viewBox="0 0 40 40" fill="none" xmlns="http://www.w3.org/2000/svg">
<path d="M28.3333 16.6666H26.3333V11.6666C26.3333 8.16659 23.5 5.33325 20 5.33325C16.5 5.33325 13.6667 8.16659 13.6667 11.6666V16.6666H11.6667C10.6667 16.6666 10 17.3333 10 18.3333V31.6666C10 32.6666 10.6667 33.3333 11.6667 33.3333H28.3333C29.3333 33.3333 30 32.6666 30 31.6666V18.3333C30 17.3333 29.3333 16.6666 28.3333 16.6666ZM23.6667 16.6666H16.3333V11.6666C16.3333 9.66658 18 7.99992 20 7.99992C22 7.99992 23.6667 9.66658 23.6667 11.6666V16.6666Z" fill="white"/>
</svg>
