<svg width="98" height="98" viewBox="0 0 98 98" fill="none" xmlns="http://www.w3.org/2000/svg">
<mask id="mask0_5_2" style="mask-type:alpha" maskUnits="userSpaceOnUse" x="0" y="0" width="98" height="98">
<rect width="98" height="98" rx="22.7907" fill="#F41D1D"/>
</mask>
<g mask="url(#mask0_5_2)">
<rect width="98" height="98" rx="22.7907" fill="url(#paint0_linear_5_2)"/>
<path fill-rule="evenodd" clip-rule="evenodd" d="M50.6572 84.3555H50.6417C44.3918 84.3534 38.2506 82.793 32.7963 79.8323L13 85L18.2979 65.7419C15.0299 60.1056 13.3103 53.7123 13.3131 47.1622C13.3213 26.6711 30.0735 10 50.6568 10C60.6466 10.0043 70.0224 13.8746 77.0734 20.8995C84.1237 27.924 88.0042 37.2613 88 47.1915C87.9923 67.6781 71.2466 84.3471 50.6572 84.3555ZM33.7124 73.1041L34.8459 73.7737C39.6113 76.5882 45.074 78.0773 50.6435 78.0794H50.6561C67.7633 78.0794 81.6873 64.222 81.6944 47.1894C81.6972 38.9356 78.4719 31.1749 72.6121 25.336C66.7515 19.4972 58.9587 16.2801 50.6684 16.2773C33.5478 16.2773 19.6239 30.1333 19.6171 47.1645C19.6147 53.0012 21.2557 58.6854 24.3627 63.6034L25.1007 64.772L21.9651 76.1711L33.7124 73.1041ZM68.1936 55.193C68.844 55.506 69.2835 55.7174 69.4712 56.0292C69.7046 56.4164 69.7046 58.2756 68.9277 60.4451C68.1493 62.6139 64.4219 64.5943 62.6291 64.8602C61.0216 65.0995 58.9873 65.1996 56.7521 64.4928C55.3968 64.0645 53.6589 63.4928 51.4327 62.5363C42.6853 58.7773 36.7738 50.3397 35.6565 48.745C35.5783 48.6333 35.5235 48.5552 35.493 48.5146L35.4855 48.5046C34.9916 47.8489 31.6829 43.4555 31.6829 38.9084C31.6829 34.631 33.7942 32.3889 34.766 31.3569C34.8326 31.2862 34.8938 31.2212 34.9487 31.1616C35.8039 30.2319 36.8149 29.9995 37.4369 29.9995C38.0588 29.9995 38.6816 30.0052 39.2252 30.0323C39.2923 30.0357 39.3621 30.0353 39.4342 30.0349C39.9779 30.0317 40.6559 30.0277 41.3246 31.6264C41.5818 32.2416 41.9583 33.1536 42.3554 34.1156C43.1583 36.061 44.0454 38.2105 44.2015 38.5215C44.4348 38.9864 44.5903 39.5284 44.2793 40.1484C44.2326 40.2414 44.1894 40.3291 44.1481 40.413C43.9145 40.8876 43.7427 41.2367 43.3462 41.6974C43.1903 41.8786 43.0292 42.0739 42.8681 42.2692C42.547 42.6583 42.2261 43.0473 41.9466 43.3244C41.4794 43.7875 40.9932 44.2898 41.5375 45.2196C42.0818 46.1493 43.9544 49.1901 46.7283 51.6525C49.7101 54.2994 52.3017 55.4181 53.6152 55.9852C53.8717 56.0959 54.0796 56.1856 54.232 56.2616C55.1647 56.7266 55.7091 56.6488 56.2534 56.0292C56.7977 55.4094 58.5859 53.3175 59.2078 52.388C59.8298 51.4587 60.4521 51.6135 61.3072 51.9232C62.1627 52.2334 66.7501 54.4796 67.6831 54.9444C67.8652 55.0352 68.0354 55.1171 68.1936 55.193Z" fill="#FDFDFD"/>
</g>
<defs>
<linearGradient id="paint0_linear_5_2" x1="49" y1="0" x2="49" y2="98" gradientUnits="userSpaceOnUse">
<stop stop-color="#62FD7D"/>
<stop offset="1" stop-color="#26D044"/>
</linearGradient>
</defs>
</svg>
