<svg width="40" height="40" viewBox="0 0 40 40" fill="none" xmlns="http://www.w3.org/2000/svg">
<path d="M28.3332 16.8333V17.2432L28.7351 17.3236C31.0306 17.7827 32.8161 19.7578 32.6675 22.1355L32.6665 22.1511V22.1667C32.6665 24.9108 30.5372 27.1667 27.8332 27.1667H12.8332C9.78459 27.1667 7.1665 24.5659 7.1665 21.3333C7.1665 18.1008 9.78459 15.5 12.8332 15.5H13.1665H13.5519L13.65 15.1272C14.4191 12.2047 17.3673 10 20.8332 10C25.1008 10 28.3332 12.9846 28.3332 16.8333ZM15.1886 15.5196L15.1862 15.5273L15.1841 15.5351L14.7846 17H12.9998C11.8281 17 10.7832 17.5848 10.0428 18.4178C9.3031 19.25 8.83317 20.3656 8.83317 21.5C8.83317 23.7472 10.6956 25.8333 12.9998 25.8333H27.9998C29.8003 25.8333 31.3097 24.2596 31.4974 22.3831L31.4998 22.3583V22.3333C31.4998 20.646 30.3727 19.0471 28.7359 18.8381L26.9998 18.571V16.8333C26.9998 13.8299 24.2112 11.5 20.9998 11.5C18.3082 11.5 15.9277 13.1177 15.1886 15.5196Z" fill="white" stroke="white"/>
<path d="M31.5 3.5L7.5 37" stroke="white" stroke-width="2" stroke-linecap="round"/>
</svg>
