<svg width="40" height="40" viewBox="0 0 40 40" fill="none" xmlns="http://www.w3.org/2000/svg">
<path d="M5.4165 20.0001C5.4165 16.1323 6.95296 12.423 9.68786 9.68811C12.4228 6.9532 16.1321 5.41675 19.9998 5.41675C23.8676 5.41675 27.5769 6.9532 30.3118 9.68811C33.0467 12.423 34.5832 16.1323 34.5832 20.0001C34.5832 23.8678 33.0467 27.5772 30.3118 30.3121C27.5769 33.047 23.8676 34.5834 19.9998 34.5834C16.1321 34.5834 12.4228 33.047 9.68786 30.3121C6.95296 27.5772 5.4165 23.8678 5.4165 20.0001ZM19.9998 7.91675C18.413 7.91675 16.8418 8.22929 15.3757 8.83654C13.9097 9.44378 12.5777 10.3338 11.4556 11.4559C10.3336 12.5779 9.44354 13.91 8.83629 15.376C8.22905 16.842 7.9165 18.4133 7.9165 20.0001C7.9165 21.5869 8.22905 23.1582 8.83629 24.6242C9.44354 26.0902 10.3336 27.4222 11.4556 28.5443C12.5777 29.6663 13.9097 30.5564 15.3757 31.1636C16.8418 31.7709 18.413 32.0834 19.9998 32.0834C23.2045 32.0834 26.278 30.8104 28.544 28.5443C30.8101 26.2782 32.0832 23.2048 32.0832 20.0001C32.0832 16.7954 30.8101 13.7219 28.544 11.4559C26.278 9.18981 23.2045 7.91675 19.9998 7.91675ZM17.7698 16.0451C17.2465 16.4117 17.0832 16.7984 17.0832 17.0834C17.0832 17.3684 17.2465 17.7551 17.7698 18.1217C18.2898 18.4851 19.0748 18.7501 19.9998 18.7501C21.3748 18.7501 22.6748 19.1384 23.6632 19.8301C24.6465 20.5201 25.4165 21.5917 25.4165 22.9167C25.4165 24.2417 24.6482 25.3134 23.6632 26.0034C22.9798 26.4801 22.1515 26.8134 21.2498 26.9734V27.5001C21.2498 27.8316 21.1181 28.1495 20.8837 28.384C20.6493 28.6184 20.3314 28.7501 19.9998 28.7501C19.6683 28.7501 19.3504 28.6184 19.116 28.384C18.8815 28.1495 18.7498 27.8316 18.7498 27.5001V26.9734C17.8847 26.8284 17.0614 26.4974 16.3365 26.0034C15.3532 25.3134 14.5832 24.2417 14.5832 22.9167C14.5832 22.5852 14.7149 22.2673 14.9493 22.0329C15.1837 21.7984 15.5017 21.6667 15.8332 21.6667C16.1647 21.6667 16.4826 21.7984 16.7171 22.0329C16.9515 22.2673 17.0832 22.5852 17.0832 22.9167C17.0832 23.2017 17.2465 23.5884 17.7698 23.9551C18.2898 24.3184 19.0748 24.5834 19.9998 24.5834C20.9248 24.5834 21.7098 24.3184 22.2298 23.9551C22.7532 23.5884 22.9165 23.2017 22.9165 22.9167C22.9165 22.6317 22.7532 22.2451 22.2298 21.8784C21.7098 21.5151 20.9248 21.2501 19.9998 21.2501C18.6248 21.2501 17.3248 20.8617 16.3365 20.1701C15.3532 19.4801 14.5832 18.4084 14.5832 17.0834C14.5832 15.7584 15.3515 14.6867 16.3365 13.9967C17.0614 13.5027 17.8847 13.1718 18.7498 13.0267V12.5001C18.7498 12.1686 18.8815 11.8506 19.116 11.6162C19.3504 11.3818 19.6683 11.2501 19.9998 11.2501C20.3314 11.2501 20.6493 11.3818 20.8837 11.6162C21.1181 11.8506 21.2498 12.1686 21.2498 12.5001V13.0267C22.1498 13.1867 22.9815 13.5201 23.6632 13.9967C24.6465 14.6867 25.4165 15.7584 25.4165 17.0834C25.4165 17.4149 25.2848 17.7329 25.0504 17.9673C24.816 18.2017 24.498 18.3334 24.1665 18.3334C23.835 18.3334 23.517 18.2017 23.2826 17.9673C23.0482 17.7329 22.9165 17.4149 22.9165 17.0834C22.9165 16.7984 22.7532 16.4117 22.2298 16.0451C21.7098 15.6817 20.9248 15.4167 19.9998 15.4167C19.0748 15.4167 18.2898 15.6817 17.7698 16.0451Z" fill="white"/>
</svg>
