<svg fill="none" viewBox="0 0 16 16" xmlns="http://www.w3.org/2000/svg"><rect fill="#611f69" height="16" rx="5" width="16"/><path d="m4.58538 9.74633c0 .71217-.57561 1.28777-1.28781 1.28777-.71219 0-1.2878-.5756-1.2878-1.28777 0-.71219.57561-1.2878 1.2878-1.2878h1.28781zm.6439 0c0-.71219.57561-1.2878 1.28781-1.2878.71219 0 1.2878.57561 1.2878 1.2878v3.21947c0 .7122-.57561 1.2879-1.2878 1.2879-.7122 0-1.28781-.5757-1.28781-1.2879z" fill="#e01e5a"/><path d="m6.51708 4.57561c-.7122 0-1.28781-.57561-1.28781-1.28781 0-.71219.57561-1.2878 1.28781-1.2878.71219 0 1.2878.57561 1.2878 1.2878v1.28781zm0 .65366c.71219 0 1.2878.57561 1.2878 1.2878 0 .7122-.57561 1.28781-1.2878 1.28781h-3.22927c-.7122 0-1.28781-.57561-1.28781-1.28781 0-.71219.57561-1.2878 1.28781-1.2878z" fill="#36c5f0"/><path d="m11.6781 6.51707c0-.71219.5756-1.2878 1.2878-1.2878s1.2878.57561 1.2878 1.2878c0 .7122-.5756 1.28781-1.2878 1.28781h-1.2878zm-.6439 0c0 .7122-.5757 1.28781-1.28785 1.28781-.7122 0-1.28781-.57561-1.28781-1.28781v-3.22927c0-.71219.57561-1.2878 1.28781-1.2878.71215 0 1.28785.57561 1.28785 1.2878z" fill="#2eb67d"/><path d="m9.74635 11.678c.71215 0 1.28785.5757 1.28785 1.2878 0 .7122-.5757 1.2879-1.28785 1.2879-.7122 0-1.28781-.5757-1.28781-1.2879v-1.2878zm0-.6439c-.7122 0-1.28781-.5756-1.28781-1.28777 0-.71219.57561-1.2878 1.28781-1.2878h3.22925c.7122 0 1.2878.57561 1.2878 1.2878 0 .71217-.5756 1.28777-1.2878 1.28777z" fill="#ecb22e"/></svg>
